<?xml version="1.0" encoding="UTF-8"?>
<!DOCTYPE svg PUBLIC "-//W3C//DTD SVG 1.1//EN" "http://www.w3.org/Graphics/SVG/1.1/DTD/svg11.dtd">
<svg version="1.2" width="208.3mm" height="45.6mm" viewBox="0 0 20830 4560" preserveAspectRatio="xMidYMid" fill-rule="evenodd" clip-path="url(#presentation_clip_path)" stroke-width="28.222" stroke-linejoin="round" xmlns="http://www.w3.org/2000/svg" xmlns:ooo="http://xml.openoffice.org/svg/export" xmlns:xlink="http://www.w3.org/1999/xlink" xml:space="preserve">
 <defs class="ClipPathGroup">
  <clipPath id="presentation_clip_path" clipPathUnits="userSpaceOnUse">
   <rect x="0" y="0" width="20830" height="4560"/>
  </clipPath>
 </defs>
 <defs class="TextShapeIndex">
  <g ooo:slide="id1" ooo:id-list="id3 id4 id5 id6 id7 id8 id9 id10 id11 id12 id13"/>
 </defs>
 <defs class="EmbeddedBulletChars">
  <g id="bullet-char-template(57356)" transform="scale(0.00048828125,-0.00048828125)">
   <path d="M 580,1141 L 1163,571 580,0 -4,571 580,1141 Z"/>
  </g>
  <g id="bullet-char-template(57354)" transform="scale(0.00048828125,-0.00048828125)">
   <path d="M 8,1128 L 1137,1128 1137,0 8,0 8,1128 Z"/>
  </g>
  <g id="bullet-char-template(10146)" transform="scale(0.00048828125,-0.00048828125)">
   <path d="M 174,0 L 602,739 174,1481 1456,739 174,0 Z M 1358,739 L 309,1346 659,739 1358,739 Z"/>
  </g>
  <g id="bullet-char-template(10132)" transform="scale(0.00048828125,-0.00048828125)">
   <path d="M 2015,739 L 1276,0 717,0 1260,543 174,543 174,936 1260,936 717,1481 1274,1481 2015,739 Z"/>
  </g>
  <g id="bullet-char-template(10007)" transform="scale(0.00048828125,-0.00048828125)">
   <path d="M 0,-2 C -7,14 -16,27 -25,37 L 356,567 C 262,823 215,952 215,954 215,979 228,992 255,992 264,992 276,990 289,987 310,991 331,999 354,1012 L 381,999 492,748 772,1049 836,1024 860,1049 C 881,1039 901,1025 922,1006 886,937 835,863 770,784 769,783 710,716 594,584 L 774,223 C 774,196 753,168 711,139 L 727,119 C 717,90 699,76 672,76 641,76 570,178 457,381 L 164,-76 C 142,-110 111,-127 72,-127 30,-127 9,-110 8,-76 1,-67 -2,-52 -2,-32 -2,-23 -1,-13 0,-2 Z"/>
  </g>
  <g id="bullet-char-template(10004)" transform="scale(0.00048828125,-0.00048828125)">
   <path d="M 285,-33 C 182,-33 111,30 74,156 52,228 41,333 41,471 41,549 55,616 82,672 116,743 169,778 240,778 293,778 328,747 346,684 L 369,508 C 377,444 397,411 428,410 L 1163,1116 C 1174,1127 1196,1133 1229,1133 1271,1133 1292,1118 1292,1087 L 1292,965 C 1292,929 1282,901 1262,881 L 442,47 C 390,-6 338,-33 285,-33 Z"/>
  </g>
  <g id="bullet-char-template(9679)" transform="scale(0.00048828125,-0.00048828125)">
   <path d="M 813,0 C 632,0 489,54 383,161 276,268 223,411 223,592 223,773 276,916 383,1023 489,1130 632,1184 813,1184 992,1184 1136,1130 1245,1023 1353,916 1407,772 1407,592 1407,412 1353,268 1245,161 1136,54 992,0 813,0 Z"/>
  </g>
  <g id="bullet-char-template(8226)" transform="scale(0.00048828125,-0.00048828125)">
   <path d="M 346,457 C 273,457 209,483 155,535 101,586 74,649 74,723 74,796 101,859 155,911 209,963 273,989 346,989 419,989 480,963 531,910 582,859 608,796 608,723 608,648 583,586 532,535 482,483 420,457 346,457 Z"/>
  </g>
  <g id="bullet-char-template(8211)" transform="scale(0.00048828125,-0.00048828125)">
   <path d="M -4,459 L 1135,459 1135,606 -4,606 -4,459 Z"/>
  </g>
 </defs>
 <defs class="TextEmbeddedBitmaps"/>
 <g>
  <g id="id2" class="Master_Slide">
   <g id="bg-id2" class="Background"/>
   <g id="bo-id2" class="BackgroundObjects"/>
  </g>
 </g>
 <g class="SlideGroup">
  <g>
   <g id="id1" class="Slide" clip-path="url(#presentation_clip_path)">
    <g class="Page">
     <g class="Group">
      <g class="com.sun.star.drawing.ClosedBezierShape">
       <g id="id3">
        <path fill="rgb(0,0,0)" stroke="none" d="M 18926,4395 C 18854,4368 18809,4315 18799,4238 18783,4137 18804,4077 18914,3906 18981,3804 19237,3312 19237,3288 19237,3279 19265,3208 19299,3131 19368,2973 19384,2871 19351,2807 19341,2786 19231,2660 19106,2526 18914,2318 18762,2137 18670,2001 18649,1969 18648,1973 18647,2132 18645,2334 18628,2510 18595,2641 18581,2698 18564,2783 18555,2834 18526,3007 18460,3110 18367,3125 18250,3144 18212,3034 18240,2749 18251,2631 18251,2585 18241,2574 18224,2557 17969,2590 17800,2632 17666,2665 17435,2679 17355,2658 17324,2650 17245,2619 17180,2589 16981,2494 16822,2305 16767,2098 16751,2037 16750,2054 16741,2329 16734,2553 16726,2654 16705,2749 16673,2898 16607,3039 16535,3108 16485,3157 16481,3158 16442,3143 16363,3110 16358,3090 16368,2825 L 16377,2587 16267,2595 C 16205,2600 16079,2620 15987,2639 15751,2686 15542,2694 15434,2660 15314,2621 15174,2534 15082,2439 14957,2310 14891,2165 14872,1977 L 14864,1886 14714,1879 C 14632,1873 14457,1860 14327,1847 14092,1825 14089,1825 14070,1850 14021,1918 13986,2157 13978,2489 13973,2687 13973,2695 14000,2709 14015,2717 14126,2733 14247,2744 15658,2867 15510,2842 15537,2964 15560,3062 15550,3091 15490,3125 15426,3162 15350,3164 15100,3136 15004,3125 14805,3108 14657,3097 14171,3060 13734,3023 13700,3017 13660,3009 13587,2918 13574,2863 13567,2837 13574,2805 13597,2751 13616,2711 13641,2623 13651,2557 13663,2492 13677,2421 13685,2400 13708,2329 13738,2066 13738,1928 13738,1749 13747,1758 13529,1725 13483,1718 13432,1703 13414,1692 13378,1669 13344,1599 13344,1550 13344,1472 13463,1400 13570,1415 13760,1443 13773,1442 13797,1405 13828,1356 13864,718 13838,691 13827,680 13768,666 13704,657 13639,647 13574,633 13558,625 13542,616 13520,583 13507,550 13475,468 13492,435 13589,392 13662,359 14059,242 14097,242 14108,242 14153,280 14198,326 14269,397 14293,411 14352,424 14462,448 14713,477 14939,491 15359,519 15548,545 15750,599 15865,630 15878,645 15882,741 15884,792 15877,812 15852,838 15822,869 15812,872 15708,872 15563,872 15326,855 14768,806 14523,785 14292,764 14254,762 L 14187,756 14166,876 C 14154,943 14135,1088 14125,1203 14114,1316 14101,1424 14097,1445 L 14090,1485 14200,1499 C 14259,1508 14403,1520 14519,1528 14797,1545 14835,1552 14878,1589 L 14915,1619 14986,1536 C 15120,1381 15247,1283 15409,1207 15560,1134 15651,1115 15831,1116 15987,1117 15990,1117 16204,1192 16342,1239 16424,1262 16432,1254 16457,1229 16466,1124 16468,876 16468,498 16503,361 16634,242 16699,182 16728,178 16767,220 16795,248 16796,260 16796,532 16796,783 16787,1056 16763,1568 L 16755,1732 16787,1659 C 16829,1558 16884,1482 16981,1389 17081,1295 17156,1242 17276,1183 17414,1115 17478,1102 17662,1103 17847,1104 17985,1132 18174,1207 18333,1270 18326,1280 18335,896 18343,565 18356,470 18417,344 18459,255 18547,150 18581,150 18593,150 18610,158 18619,167 18662,220 18675,749 18649,1423 18643,1600 18639,1746 18640,1749 18641,1750 18674,1737 18713,1718 18808,1675 18845,1676 18904,1728 18941,1760 19122,1989 19275,2200 19286,2215 19336,2258 19385,2297 L 19477,2369 19508,2333 C 19561,2267 19615,2154 19674,1981 19742,1785 19828,1594 19876,1531 19924,1469 19983,1436 20048,1436 20128,1436 20156,1484 20156,1628 20156,1776 20122,1896 20012,2132 19882,2410 19840,2527 19832,2639 19823,2755 19833,2812 19874,2872 19924,2946 19917,2982 19842,3056 19805,3091 19749,3136 19715,3154 19654,3188 19655,3188 19577,3392 19534,3503 19479,3652 19452,3720 19388,3887 19224,4210 19162,4290 19074,4403 19019,4427 18926,4395 Z M 15983,2348 C 16163,2301 16302,2196 16376,2049 16421,1959 16423,1936 16394,1826 16351,1658 16277,1565 16129,1490 15848,1348 15570,1401 15332,1638 15276,1695 15258,1725 15235,1797 15203,1904 15200,2012 15230,2075 15288,2200 15449,2321 15609,2362 15703,2385 15864,2379 15983,2348 Z M 17891,2321 C 18064,2275 18186,2183 18253,2049 18305,1944 18305,1872 18251,1745 18156,1512 17847,1335 17621,1382 17330,1442 17072,1690 17072,1907 17072,1973 17081,2002 17125,2091 17198,2232 17287,2297 17457,2337 17557,2359 17780,2351 17891,2321 Z"/>
        <path fill="none" stroke="rgb(0,0,0)" stroke-width="240" d="M 18926,4395 C 18854,4368 18809,4315 18799,4238 18783,4137 18804,4077 18914,3906 18981,3804 19237,3312 19237,3288 19237,3279 19265,3208 19299,3131 19368,2973 19384,2871 19351,2807 19341,2786 19231,2660 19106,2526 18914,2318 18762,2137 18670,2001 18649,1969 18648,1973 18647,2132 18645,2334 18628,2510 18595,2641 18581,2698 18564,2783 18555,2834 18526,3007 18460,3110 18367,3125 18250,3144 18212,3034 18240,2749 18251,2631 18251,2585 18241,2574 18224,2557 17969,2590 17800,2632 17666,2665 17435,2679 17355,2658 17324,2650 17245,2619 17180,2589 16981,2494 16822,2305 16767,2098 16751,2037 16750,2054 16741,2329 16734,2553 16726,2654 16705,2749 16673,2898 16607,3039 16535,3108 16485,3157 16481,3158 16442,3143 16363,3110 16358,3090 16368,2825 L 16377,2587 16267,2595 C 16205,2600 16079,2620 15987,2639 15751,2686 15542,2694 15434,2660 15314,2621 15174,2534 15082,2439 14957,2310 14891,2165 14872,1977 L 14864,1886 14714,1879 C 14632,1873 14457,1860 14327,1847 14092,1825 14089,1825 14070,1850 14021,1918 13986,2157 13978,2489 13973,2687 13973,2695 14000,2709 14015,2717 14126,2733 14247,2744 15658,2867 15510,2842 15537,2964 15560,3062 15550,3091 15490,3125 15426,3162 15350,3164 15100,3136 15004,3125 14805,3108 14657,3097 14171,3060 13734,3023 13700,3017 13660,3009 13587,2918 13574,2863 13567,2837 13574,2805 13597,2751 13616,2711 13641,2623 13651,2557 13663,2492 13677,2421 13685,2400 13708,2329 13738,2066 13738,1928 13738,1749 13747,1758 13529,1725 13483,1718 13432,1703 13414,1692 13378,1669 13344,1599 13344,1550 13344,1472 13463,1400 13570,1415 13760,1443 13773,1442 13797,1405 13828,1356 13864,718 13838,691 13827,680 13768,666 13704,657 13639,647 13574,633 13558,625 13542,616 13520,583 13507,550 13475,468 13492,435 13589,392 13662,359 14059,242 14097,242 14108,242 14153,280 14198,326 14269,397 14293,411 14352,424 14462,448 14713,477 14939,491 15359,519 15548,545 15750,599 15865,630 15878,645 15882,741 15884,792 15877,812 15852,838 15822,869 15812,872 15708,872 15563,872 15326,855 14768,806 14523,785 14292,764 14254,762 L 14187,756 14166,876 C 14154,943 14135,1088 14125,1203 14114,1316 14101,1424 14097,1445 L 14090,1485 14200,1499 C 14259,1508 14403,1520 14519,1528 14797,1545 14835,1552 14878,1589 L 14915,1619 14986,1536 C 15120,1381 15247,1283 15409,1207 15560,1134 15651,1115 15831,1116 15987,1117 15990,1117 16204,1192 16342,1239 16424,1262 16432,1254 16457,1229 16466,1124 16468,876 16468,498 16503,361 16634,242 16699,182 16728,178 16767,220 16795,248 16796,260 16796,532 16796,783 16787,1056 16763,1568 L 16755,1732 16787,1659 C 16829,1558 16884,1482 16981,1389 17081,1295 17156,1242 17276,1183 17414,1115 17478,1102 17662,1103 17847,1104 17985,1132 18174,1207 18333,1270 18326,1280 18335,896 18343,565 18356,470 18417,344 18459,255 18547,150 18581,150 18593,150 18610,158 18619,167 18662,220 18675,749 18649,1423 18643,1600 18639,1746 18640,1749 18641,1750 18674,1737 18713,1718 18808,1675 18845,1676 18904,1728 18941,1760 19122,1989 19275,2200 19286,2215 19336,2258 19385,2297 L 19477,2369 19508,2333 C 19561,2267 19615,2154 19674,1981 19742,1785 19828,1594 19876,1531 19924,1469 19983,1436 20048,1436 20128,1436 20156,1484 20156,1628 20156,1776 20122,1896 20012,2132 19882,2410 19840,2527 19832,2639 19823,2755 19833,2812 19874,2872 19924,2946 19917,2982 19842,3056 19805,3091 19749,3136 19715,3154 19654,3188 19655,3188 19577,3392 19534,3503 19479,3652 19452,3720 19388,3887 19224,4210 19162,4290 19074,4403 19019,4427 18926,4395 Z"/>
        <path fill="none" stroke="rgb(0,0,0)" stroke-width="240" d="M 15983,2348 C 16163,2301 16302,2196 16376,2049 16421,1959 16423,1936 16394,1826 16351,1658 16277,1565 16129,1490 15848,1348 15570,1401 15332,1638 15276,1695 15258,1725 15235,1797 15203,1904 15200,2012 15230,2075 15288,2200 15449,2321 15609,2362 15703,2385 15864,2379 15983,2348 Z"/>
        <path fill="none" stroke="rgb(0,0,0)" stroke-width="240" d="M 17891,2321 C 18064,2275 18186,2183 18253,2049 18305,1944 18305,1872 18251,1745 18156,1512 17847,1335 17621,1382 17330,1442 17072,1690 17072,1907 17072,1973 17081,2002 17125,2091 17198,2232 17287,2297 17457,2337 17557,2359 17780,2351 17891,2321 Z"/>
       </g>
      </g>
      <g class="com.sun.star.drawing.ClosedBezierShape">
       <g id="id4">
        <path fill="rgb(0,0,0)" stroke="none" d="M 564,3506 C 506,3440 500,3380 534,3240 550,3175 566,3064 569,2992 576,2868 554,2356 541,2345 538,2341 470,2334 391,2329 228,2318 189,2301 159,2230 117,2128 149,2045 251,1999 295,1980 324,1977 411,1984 567,1995 562,2010 545,1600 537,1421 529,1270 526,1267 524,1264 470,1260 407,1259 270,1256 232,1241 194,1174 125,1050 177,999 521,854 630,808 706,783 722,788 735,792 778,825 818,859 916,949 947,955 1269,945 2034,922 2179,922 2305,941 2436,964 2470,983 2483,1044 2494,1090 2467,1213 2445,1220 2375,1243 2008,1270 1528,1285 1211,1296 930,1309 902,1313 853,1321 850,1323 842,1386 837,1423 837,1565 842,1703 852,1936 854,1955 881,1977 916,2006 986,2007 1201,1980 1391,1956 1507,1961 1593,2001 1626,2015 1655,2026 1655,2024 1656,2022 1677,1980 1702,1928 1786,1758 2039,1535 2227,1465 2396,1402 2714,1413 2944,1487 3050,1523 3058,1515 3047,1372 3042,1310 3033,1209 3026,1148 3004,966 3008,742 3034,654 3059,569 3103,477 3125,462 3151,445 3194,452 3227,478 3255,499 3261,519 3268,586 3272,632 3288,770 3302,893 3317,1018 3347,1344 3369,1621 3391,1898 3422,2238 3436,2375 3474,2725 3467,2980 3414,3148 3381,3253 3265,3329 3213,3280 3179,3251 3149,3123 3141,2978 3130,2800 3129,2797 3055,2808 3023,2813 2903,2846 2792,2883 2320,3034 2225,3024 1902,2799 1802,2729 1682,2531 1650,2380 L 1633,2305 1587,2325 C 1550,2339 1492,2343 1323,2339 1093,2335 916,2346 877,2368 833,2390 823,2635 852,2989 L 866,3182 920,3196 C 959,3208 1012,3208 1118,3198 1198,3190 1508,3182 1808,3182 L 2354,3181 2378,3230 C 2393,3258 2406,3313 2408,3354 2414,3425 2412,3429 2370,3460 2309,3506 2265,3510 1518,3523 1161,3530 810,3539 737,3544 L 605,3553 564,3506 Z M 2576,2624 C 2696,2602 2851,2532 2933,2464 2965,2439 3012,2385 3038,2346 3082,2280 3086,2266 3086,2187 3084,2073 3047,1993 2960,1907 2826,1779 2643,1720 2459,1747 2377,1759 2341,1774 2228,1841 2085,1925 2050,1961 1990,2086 1959,2148 1952,2183 1952,2247 1952,2352 1974,2401 2062,2484 2139,2557 2209,2597 2310,2624 2399,2648 2453,2648 2576,2624 Z"/>
        <path fill="none" stroke="rgb(0,0,0)" stroke-width="240" d="M 564,3506 C 506,3440 500,3380 534,3240 550,3175 566,3064 569,2992 576,2868 554,2356 541,2345 538,2341 470,2334 391,2329 228,2318 189,2301 159,2230 117,2128 149,2045 251,1999 295,1980 324,1977 411,1984 567,1995 562,2010 545,1600 537,1421 529,1270 526,1267 524,1264 470,1260 407,1259 270,1256 232,1241 194,1174 125,1050 177,999 521,854 630,808 706,783 722,788 735,792 778,825 818,859 916,949 947,955 1269,945 2034,922 2179,922 2305,941 2436,964 2470,983 2483,1044 2494,1090 2467,1213 2445,1220 2375,1243 2008,1270 1528,1285 1211,1296 930,1309 902,1313 853,1321 850,1323 842,1386 837,1423 837,1565 842,1703 852,1936 854,1955 881,1977 916,2006 986,2007 1201,1980 1391,1956 1507,1961 1593,2001 1626,2015 1655,2026 1655,2024 1656,2022 1677,1980 1702,1928 1786,1758 2039,1535 2227,1465 2396,1402 2714,1413 2944,1487 3050,1523 3058,1515 3047,1372 3042,1310 3033,1209 3026,1148 3004,966 3008,742 3034,654 3059,569 3103,477 3125,462 3151,445 3194,452 3227,478 3255,499 3261,519 3268,586 3272,632 3288,770 3302,893 3317,1018 3347,1344 3369,1621 3391,1898 3422,2238 3436,2375 3474,2725 3467,2980 3414,3148 3381,3253 3265,3329 3213,3280 3179,3251 3149,3123 3141,2978 3130,2800 3129,2797 3055,2808 3023,2813 2903,2846 2792,2883 2320,3034 2225,3024 1902,2799 1802,2729 1682,2531 1650,2380 L 1633,2305 1587,2325 C 1550,2339 1492,2343 1323,2339 1093,2335 916,2346 877,2368 833,2390 823,2635 852,2989 L 866,3182 920,3196 C 959,3208 1012,3208 1118,3198 1198,3190 1508,3182 1808,3182 L 2354,3181 2378,3230 C 2393,3258 2406,3313 2408,3354 2414,3425 2412,3429 2370,3460 2309,3506 2265,3510 1518,3523 1161,3530 810,3539 737,3544 L 605,3553 564,3506 Z"/>
        <path fill="none" stroke="rgb(0,0,0)" stroke-width="240" d="M 2576,2624 C 2696,2602 2851,2532 2933,2464 2965,2439 3012,2385 3038,2346 3082,2280 3086,2266 3086,2187 3084,2073 3047,1993 2960,1907 2826,1779 2643,1720 2459,1747 2377,1759 2341,1774 2228,1841 2085,1925 2050,1961 1990,2086 1959,2148 1952,2183 1952,2247 1952,2352 1974,2401 2062,2484 2139,2557 2209,2597 2310,2624 2399,2648 2453,2648 2576,2624 Z"/>
       </g>
      </g>
      <g class="com.sun.star.drawing.ClosedBezierShape">
       <g id="id5">
        <path fill="rgb(208,66,53)" stroke="none" d="M 3833,3853 C 3775,3817 3744,3712 3755,3588 3772,3403 3874,3139 3959,3059 4032,2988 4126,3019 4173,3128 4229,3252 4198,3424 4072,3688 3988,3864 3922,3908 3833,3853 Z"/>
        <path fill="none" stroke="rgb(0,0,0)" stroke-width="240" d="M 3833,3853 C 3775,3817 3744,3712 3755,3588 3772,3403 3874,3139 3959,3059 4032,2988 4126,3019 4173,3128 4229,3252 4198,3424 4072,3688 3988,3864 3922,3908 3833,3853 Z"/>
       </g>
      </g>
      <g class="com.sun.star.drawing.ClosedBezierShape">
       <g id="id6">
        <path fill="rgb(0,0,0)" stroke="none" d="M 11340,2871 C 11287,2860 11233,2784 11225,2707 11219,2648 11201,2291 11157,1403 11149,1263 11152,1225 11169,1193 11199,1134 11236,1107 11294,1099 11358,1090 11412,1117 11467,1187 11489,1216 11514,1239 11521,1239 11529,1239 11559,1213 11588,1180 11618,1146 11677,1103 11722,1082 12050,922 12316,1095 12405,1525 12440,1688 12514,2524 12500,2577 12482,2648 12424,2696 12359,2696 12331,2696 12290,2688 12269,2678 12203,2644 12191,2596 12148,2191 12092,1659 12088,1626 12059,1571 12002,1461 11886,1410 11753,1437 11670,1456 11586,1533 11561,1615 11550,1654 11546,1821 11546,2212 11546,2734 11544,2757 11519,2799 11505,2822 11472,2851 11447,2862 11401,2880 11392,2881 11340,2871 Z"/>
        <path fill="none" stroke="rgb(0,0,0)" stroke-width="240" d="M 11340,2871 C 11287,2860 11233,2784 11225,2707 11219,2648 11201,2291 11157,1403 11149,1263 11152,1225 11169,1193 11199,1134 11236,1107 11294,1099 11358,1090 11412,1117 11467,1187 11489,1216 11514,1239 11521,1239 11529,1239 11559,1213 11588,1180 11618,1146 11677,1103 11722,1082 12050,922 12316,1095 12405,1525 12440,1688 12514,2524 12500,2577 12482,2648 12424,2696 12359,2696 12331,2696 12290,2688 12269,2678 12203,2644 12191,2596 12148,2191 12092,1659 12088,1626 12059,1571 12002,1461 11886,1410 11753,1437 11670,1456 11586,1533 11561,1615 11550,1654 11546,1821 11546,2212 11546,2734 11544,2757 11519,2799 11505,2822 11472,2851 11447,2862 11401,2880 11392,2881 11340,2871 Z"/>
       </g>
      </g>
      <g class="com.sun.star.drawing.ClosedBezierShape">
       <g id="id7">
        <path fill="rgb(225,47,41)" stroke="none" d="M 11341,2871 C 11288,2860 11234,2784 11226,2707 11220,2648 11202,2291 11158,1403 11150,1263 11153,1225 11170,1193 11200,1134 11237,1107 11295,1099 11359,1090 11413,1117 11468,1187 11490,1216 11515,1239 11522,1239 11530,1239 11560,1213 11589,1180 11619,1146 11678,1103 11723,1082 12051,922 12317,1095 12406,1525 12441,1688 12515,2524 12501,2577 12483,2648 12425,2696 12360,2696 12332,2696 12291,2688 12270,2678 12204,2644 12192,2596 12149,2191 12093,1659 12089,1626 12060,1571 12003,1461 11887,1410 11754,1437 11671,1456 11587,1533 11562,1615 11551,1654 11547,1821 11547,2212 11547,2734 11545,2757 11520,2799 11506,2822 11473,2851 11448,2862 11402,2880 11393,2881 11341,2871 Z"/>
       </g>
      </g>
      <g class="com.sun.star.drawing.ClosedBezierShape">
       <g id="id8">
        <path fill="rgb(0,0,0)" stroke="none" d="M 5453,3474 C 5389,3471 5373,3464 5344,3430 5302,3379 5301,3317 5340,3183 5366,3091 5369,3053 5369,2686 5370,2346 5368,2287 5351,2276 5327,2262 5230,2242 5123,2230 5025,2220 4971,2175 4961,2098 4954,2048 4957,2041 4997,2010 5059,1964 5139,1945 5257,1949 5312,1952 5365,1949 5374,1943 5386,1936 5390,1847 5390,1581 5390,1164 5399,1187 5235,1187 5130,1187 5058,1164 5037,1124 5013,1080 5020,1020 5053,985 5089,944 5226,876 5412,806 L 5561,751 5614,798 C 5679,852 5759,893 5845,912 5885,920 6050,924 6289,922 6499,920 6779,924 6912,932 7163,947 7212,958 7296,1017 7332,1044 7335,1050 7330,1111 7321,1205 7298,1221 7164,1234 7101,1241 6754,1246 6393,1246 5764,1246 5732,1247 5706,1271 5680,1294 5679,1306 5679,1629 L 5679,1961 5715,1976 C 5739,1986 5813,1987 5948,1980 6302,1960 6332,1964 6469,2037 6473,2039 6496,2004 6520,1960 6544,1917 6604,1835 6655,1781 6815,1609 6991,1504 7183,1466 7325,1439 7456,1452 7693,1519 L 7851,1563 7863,1497 C 7869,1456 7868,1329 7860,1174 7838,784 7868,636 7993,519 8035,481 8090,489 8100,534 8129,663 8179,1235 8192,1581 8196,1700 8203,1823 8207,1856 L 8214,1915 8246,1839 C 8382,1503 8713,1266 9047,1266 9146,1266 9396,1308 9511,1343 9631,1381 9633,1374 9624,1161 9602,666 9600,578 9615,511 9635,423 9695,332 9754,300 9799,276 9800,276 9825,301 9869,347 9904,702 9938,1476 9948,1725 9968,2025 9981,2145 10011,2442 10009,2747 9973,2883 9927,3052 9896,3112 9843,3131 9732,3167 9700,3106 9683,2822 9678,2724 9666,2636 9659,2629 9645,2615 9586,2629 9236,2730 9092,2772 9053,2779 8927,2779 8756,2779 8680,2757 8540,2663 8401,2570 8301,2447 8247,2296 L 8224,2230 8231,2342 C 8235,2403 8246,2524 8254,2610 8284,2953 8208,3280 8086,3326 8037,3345 7979,3318 7962,3268 7956,3246 7944,3140 7937,3033 7932,2926 7922,2834 7914,2826 7907,2820 7840,2833 7739,2862 7464,2940 7342,2963 7168,2963 6924,2963 6790,2907 6642,2745 6537,2628 6453,2435 6453,2312 6453,2280 6449,2275 6431,2284 6418,2291 6265,2295 6092,2292 5919,2291 5753,2293 5725,2300 5673,2309 5672,2310 5655,2388 5638,2468 5642,2959 5662,3089 5673,3170 5715,3186 5914,3179 5998,3178 6303,3177 6593,3179 L 7121,3182 7157,3228 C 7202,3288 7214,3381 7181,3418 7125,3481 7078,3484 6277,3481 5865,3480 5494,3477 5453,3474 Z M 7453,2645 C 7653,2594 7804,2486 7869,2351 7937,2211 7873,1974 7742,1877 7667,1823 7563,1777 7441,1746 7276,1703 7071,1775 6931,1926 6834,2028 6755,2174 6755,2249 6755,2367 6848,2523 6960,2592 7086,2670 7276,2690 7453,2645 Z M 9222,2449 C 9405,2386 9566,2274 9607,2184 9644,2100 9652,1944 9624,1859 9562,1675 9333,1537 9091,1539 8921,1539 8830,1582 8674,1738 8569,1843 8522,1939 8516,2061 8510,2172 8528,2220 8615,2317 8726,2440 8855,2490 9039,2481 9100,2477 9183,2463 9222,2449 Z"/>
        <path fill="none" stroke="rgb(0,0,0)" stroke-width="240" d="M 5453,3474 C 5389,3471 5373,3464 5344,3430 5302,3379 5301,3317 5340,3183 5366,3091 5369,3053 5369,2686 5370,2346 5368,2287 5351,2276 5327,2262 5230,2242 5123,2230 5025,2220 4971,2175 4961,2098 4954,2048 4957,2041 4997,2010 5059,1964 5139,1945 5257,1949 5312,1952 5365,1949 5374,1943 5386,1936 5390,1847 5390,1581 5390,1164 5399,1187 5235,1187 5130,1187 5058,1164 5037,1124 5013,1080 5020,1020 5053,985 5089,944 5226,876 5412,806 L 5561,751 5614,798 C 5679,852 5759,893 5845,912 5885,920 6050,924 6289,922 6499,920 6779,924 6912,932 7163,947 7212,958 7296,1017 7332,1044 7335,1050 7330,1111 7321,1205 7298,1221 7164,1234 7101,1241 6754,1246 6393,1246 5764,1246 5732,1247 5706,1271 5680,1294 5679,1306 5679,1629 L 5679,1961 5715,1976 C 5739,1986 5813,1987 5948,1980 6302,1960 6332,1964 6469,2037 6473,2039 6496,2004 6520,1960 6544,1917 6604,1835 6655,1781 6815,1609 6991,1504 7183,1466 7325,1439 7456,1452 7693,1519 L 7851,1563 7863,1497 C 7869,1456 7868,1329 7860,1174 7838,784 7868,636 7993,519 8035,481 8090,489 8100,534 8129,663 8179,1235 8192,1581 8196,1700 8203,1823 8207,1856 L 8214,1915 8246,1839 C 8382,1503 8713,1266 9047,1266 9146,1266 9396,1308 9511,1343 9631,1381 9633,1374 9624,1161 9602,666 9600,578 9615,511 9635,423 9695,332 9754,300 9799,276 9800,276 9825,301 9869,347 9904,702 9938,1476 9948,1725 9968,2025 9981,2145 10011,2442 10009,2747 9973,2883 9927,3052 9896,3112 9843,3131 9732,3167 9700,3106 9683,2822 9678,2724 9666,2636 9659,2629 9645,2615 9586,2629 9236,2730 9092,2772 9053,2779 8927,2779 8756,2779 8680,2757 8540,2663 8401,2570 8301,2447 8247,2296 L 8224,2230 8231,2342 C 8235,2403 8246,2524 8254,2610 8284,2953 8208,3280 8086,3326 8037,3345 7979,3318 7962,3268 7956,3246 7944,3140 7937,3033 7932,2926 7922,2834 7914,2826 7907,2820 7840,2833 7739,2862 7464,2940 7342,2963 7168,2963 6924,2963 6790,2907 6642,2745 6537,2628 6453,2435 6453,2312 6453,2280 6449,2275 6431,2284 6418,2291 6265,2295 6092,2292 5919,2291 5753,2293 5725,2300 5673,2309 5672,2310 5655,2388 5638,2468 5642,2959 5662,3089 5673,3170 5715,3186 5914,3179 5998,3178 6303,3177 6593,3179 L 7121,3182 7157,3228 C 7202,3288 7214,3381 7181,3418 7125,3481 7078,3484 6277,3481 5865,3480 5494,3477 5453,3474 Z"/>
        <path fill="none" stroke="rgb(0,0,0)" stroke-width="240" d="M 7453,2645 C 7653,2594 7804,2486 7869,2351 7937,2211 7873,1974 7742,1877 7667,1823 7563,1777 7441,1746 7276,1703 7071,1775 6931,1926 6834,2028 6755,2174 6755,2249 6755,2367 6848,2523 6960,2592 7086,2670 7276,2690 7453,2645 Z"/>
        <path fill="none" stroke="rgb(0,0,0)" stroke-width="240" d="M 9222,2449 C 9405,2386 9566,2274 9607,2184 9644,2100 9652,1944 9624,1859 9562,1675 9333,1537 9091,1539 8921,1539 8830,1582 8674,1738 8569,1843 8522,1939 8516,2061 8510,2172 8528,2220 8615,2317 8726,2440 8855,2490 9039,2481 9100,2477 9183,2463 9222,2449 Z"/>
       </g>
      </g>
      <g class="com.sun.star.drawing.ClosedBezierShape">
       <g id="id9">
        <path fill="rgb(225,47,41)" stroke="none" d="M 18926,4395 C 18854,4368 18809,4315 18799,4238 18783,4137 18804,4077 18914,3906 18981,3804 19237,3312 19237,3288 19237,3279 19265,3208 19299,3131 19368,2973 19384,2871 19351,2807 19341,2786 19231,2660 19106,2526 18914,2318 18762,2137 18670,2001 18649,1969 18648,1973 18647,2132 18645,2334 18628,2510 18595,2641 18581,2698 18564,2783 18555,2834 18526,3007 18460,3110 18367,3125 18250,3144 18212,3034 18240,2749 18251,2631 18251,2585 18241,2574 18224,2557 17969,2590 17800,2632 17666,2665 17435,2679 17355,2658 17324,2650 17245,2619 17180,2589 16981,2494 16822,2305 16767,2098 16751,2037 16750,2054 16741,2329 16734,2553 16726,2654 16705,2749 16673,2898 16607,3039 16535,3108 16485,3157 16481,3158 16442,3143 16363,3110 16358,3090 16368,2825 L 16377,2587 16267,2595 C 16205,2600 16079,2620 15987,2639 15751,2686 15542,2694 15434,2660 15314,2621 15174,2534 15082,2439 14957,2310 14891,2165 14872,1977 L 14864,1886 14714,1879 C 14632,1873 14457,1860 14327,1847 14092,1825 14089,1825 14070,1850 14021,1918 13986,2157 13978,2489 13973,2687 13973,2695 14000,2709 14015,2717 14126,2733 14247,2744 15658,2867 15510,2842 15537,2964 15560,3062 15550,3091 15490,3125 15426,3162 15350,3164 15100,3136 15004,3125 14805,3108 14657,3097 14171,3060 13734,3023 13700,3017 13660,3009 13587,2918 13574,2863 13567,2837 13574,2805 13597,2751 13616,2711 13641,2623 13651,2557 13663,2492 13677,2421 13685,2400 13708,2329 13738,2066 13738,1928 13738,1749 13747,1758 13529,1725 13483,1718 13432,1703 13414,1692 13378,1669 13344,1599 13344,1550 13344,1472 13463,1400 13570,1415 13760,1443 13773,1442 13797,1405 13828,1356 13864,718 13838,691 13827,680 13768,666 13704,657 13639,647 13574,633 13558,625 13542,616 13520,583 13507,550 13475,468 13492,435 13589,392 13662,359 14059,242 14097,242 14108,242 14153,280 14198,326 14269,397 14293,411 14352,424 14462,448 14713,477 14939,491 15359,519 15548,545 15750,599 15865,630 15878,645 15882,741 15884,792 15877,812 15852,838 15822,869 15812,872 15708,872 15563,872 15326,855 14768,806 14523,785 14292,764 14254,762 L 14187,756 14166,876 C 14154,943 14135,1088 14125,1203 14114,1316 14101,1424 14097,1445 L 14090,1485 14200,1499 C 14259,1508 14403,1520 14519,1528 14797,1545 14835,1552 14878,1589 L 14915,1619 14986,1536 C 15120,1381 15247,1283 15409,1207 15560,1134 15651,1115 15831,1116 15987,1117 15990,1117 16204,1192 16342,1239 16424,1262 16432,1254 16457,1229 16466,1124 16468,876 16468,498 16503,361 16634,242 16699,182 16728,178 16767,220 16795,248 16796,260 16796,532 16796,783 16787,1056 16763,1568 L 16755,1732 16787,1659 C 16829,1558 16884,1482 16981,1389 17081,1295 17156,1242 17276,1183 17414,1115 17478,1102 17662,1103 17847,1104 17985,1132 18174,1207 18333,1270 18326,1280 18335,896 18343,565 18356,470 18417,344 18459,255 18547,150 18581,150 18593,150 18610,158 18619,167 18662,220 18675,749 18649,1423 18643,1600 18639,1746 18640,1749 18641,1750 18674,1737 18713,1718 18808,1675 18845,1676 18904,1728 18941,1760 19122,1989 19275,2200 19286,2215 19336,2258 19385,2297 L 19477,2369 19508,2333 C 19561,2267 19615,2154 19674,1981 19742,1785 19828,1594 19876,1531 19924,1469 19983,1436 20048,1436 20128,1436 20156,1484 20156,1628 20156,1776 20122,1896 20012,2132 19882,2410 19840,2527 19832,2639 19823,2755 19833,2812 19874,2872 19924,2946 19917,2982 19842,3056 19805,3091 19749,3136 19715,3154 19654,3188 19655,3188 19577,3392 19534,3503 19479,3652 19452,3720 19388,3887 19224,4210 19162,4290 19074,4403 19019,4427 18926,4395 Z M 15983,2348 C 16163,2301 16302,2196 16376,2049 16421,1959 16423,1936 16394,1826 16351,1658 16277,1565 16129,1490 15848,1348 15570,1401 15332,1638 15276,1695 15258,1725 15235,1797 15203,1904 15200,2012 15230,2075 15288,2200 15449,2321 15609,2362 15703,2385 15864,2379 15983,2348 Z M 17891,2321 C 18064,2275 18186,2183 18253,2049 18305,1944 18305,1872 18251,1745 18156,1512 17847,1335 17621,1382 17330,1442 17072,1690 17072,1907 17072,1973 17081,2002 17125,2091 17198,2232 17287,2297 17457,2337 17557,2359 17780,2351 17891,2321 Z"/>
       </g>
      </g>
      <g class="com.sun.star.drawing.ClosedBezierShape">
       <g id="id10">
        <path fill="rgb(225,47,41)" stroke="none" d="M 3832,3853 C 3774,3817 3743,3712 3754,3588 3771,3403 3873,3139 3958,3059 4031,2988 4125,3019 4172,3128 4228,3252 4197,3424 4071,3688 3987,3864 3921,3908 3832,3853 Z"/>
       </g>
      </g>
      <g class="com.sun.star.drawing.ClosedBezierShape">
       <g id="id11">
        <path fill="rgb(225,47,41)" stroke="none" d="M 563,3506 C 505,3440 499,3380 533,3240 549,3175 565,3064 568,2992 575,2868 553,2356 540,2345 537,2341 469,2334 390,2329 227,2318 188,2301 158,2230 116,2128 148,2045 250,1999 294,1980 323,1977 410,1984 566,1995 561,2010 544,1600 536,1421 528,1270 525,1267 523,1264 469,1260 406,1259 269,1256 231,1241 193,1174 124,1050 176,999 520,854 629,808 705,783 721,788 734,792 777,825 817,859 915,949 946,955 1268,945 2033,922 2178,922 2304,941 2435,964 2469,983 2482,1044 2493,1090 2466,1213 2444,1220 2374,1243 2007,1270 1527,1285 1210,1296 929,1309 901,1313 852,1321 849,1323 841,1386 836,1423 836,1565 841,1703 851,1936 853,1955 880,1977 915,2006 985,2007 1200,1980 1390,1956 1506,1961 1592,2001 1625,2015 1654,2026 1654,2024 1655,2022 1676,1980 1701,1928 1785,1758 2038,1535 2226,1465 2395,1402 2713,1413 2943,1487 3049,1523 3057,1515 3046,1372 3041,1310 3032,1209 3025,1148 3003,966 3007,742 3033,654 3058,569 3102,477 3124,462 3150,445 3193,452 3226,478 3254,499 3260,519 3267,586 3271,632 3287,770 3301,893 3316,1018 3346,1344 3368,1621 3390,1898 3421,2238 3435,2375 3473,2725 3466,2980 3413,3148 3380,3253 3264,3329 3212,3280 3178,3251 3148,3123 3140,2978 3129,2800 3128,2797 3054,2808 3022,2813 2902,2846 2791,2883 2319,3034 2224,3024 1901,2799 1801,2729 1681,2531 1649,2380 L 1632,2305 1586,2325 C 1549,2339 1491,2343 1322,2339 1092,2335 915,2346 876,2368 832,2390 822,2635 851,2989 L 865,3182 919,3196 C 958,3208 1011,3208 1117,3198 1197,3190 1507,3182 1807,3182 L 2353,3181 2377,3230 C 2392,3258 2405,3313 2407,3354 2413,3425 2411,3429 2369,3460 2308,3506 2264,3510 1517,3523 1160,3530 809,3539 736,3544 L 604,3553 563,3506 Z M 2575,2624 C 2695,2602 2850,2532 2932,2464 2964,2439 3011,2385 3037,2346 3081,2280 3085,2266 3085,2187 3083,2073 3046,1993 2959,1907 2825,1779 2642,1720 2458,1747 2376,1759 2340,1774 2227,1841 2084,1925 2049,1961 1989,2086 1958,2148 1951,2183 1951,2247 1951,2352 1973,2401 2061,2484 2138,2557 2208,2597 2309,2624 2398,2648 2452,2648 2575,2624 Z"/>
       </g>
      </g>
      <g class="com.sun.star.drawing.ClosedBezierShape">
       <g id="id12">
        <path fill="rgb(225,47,41)" stroke="none" d="M 5453,3474 C 5389,3471 5373,3464 5344,3430 5302,3379 5301,3317 5340,3183 5366,3091 5369,3053 5369,2686 5370,2346 5368,2287 5351,2276 5327,2262 5230,2242 5123,2230 5025,2220 4971,2175 4961,2098 4954,2048 4957,2041 4997,2010 5059,1964 5139,1945 5257,1949 5312,1952 5365,1949 5374,1943 5386,1936 5390,1847 5390,1581 5390,1164 5399,1187 5235,1187 5130,1187 5058,1164 5037,1124 5013,1080 5020,1020 5053,985 5089,944 5226,876 5412,806 L 5561,751 5614,798 C 5679,852 5759,893 5845,912 5885,920 6050,924 6289,922 6499,920 6779,924 6912,932 7163,947 7212,958 7296,1017 7332,1044 7335,1050 7330,1111 7321,1205 7298,1221 7164,1234 7101,1241 6754,1246 6393,1246 5764,1246 5732,1247 5706,1271 5680,1294 5679,1306 5679,1629 L 5679,1961 5715,1976 C 5739,1986 5813,1987 5948,1980 6302,1960 6332,1964 6469,2037 6473,2039 6496,2004 6520,1960 6544,1917 6604,1835 6655,1781 6815,1609 6991,1504 7183,1466 7325,1439 7456,1452 7693,1519 L 7851,1563 7863,1497 C 7869,1456 7868,1329 7860,1174 7838,784 7868,636 7993,519 8035,481 8090,489 8100,534 8129,663 8179,1235 8192,1581 8196,1700 8203,1823 8207,1856 L 8214,1915 8246,1839 C 8382,1503 8713,1266 9047,1266 9146,1266 9396,1308 9511,1343 9631,1381 9633,1374 9624,1161 9602,666 9600,578 9615,511 9635,423 9695,332 9754,300 9799,276 9800,276 9825,301 9869,347 9904,702 9938,1476 9948,1725 9968,2025 9981,2145 10011,2442 10009,2747 9973,2883 9927,3052 9896,3112 9843,3131 9732,3167 9700,3106 9683,2822 9678,2724 9666,2636 9659,2629 9645,2615 9586,2629 9236,2730 9092,2772 9053,2779 8927,2779 8756,2779 8680,2757 8540,2663 8401,2570 8301,2447 8247,2296 L 8224,2230 8231,2342 C 8235,2403 8246,2524 8254,2610 8284,2953 8208,3280 8086,3326 8037,3345 7979,3318 7962,3268 7956,3246 7944,3140 7937,3033 7932,2926 7922,2834 7914,2826 7907,2820 7840,2833 7739,2862 7464,2940 7342,2963 7168,2963 6924,2963 6790,2907 6642,2745 6537,2628 6453,2435 6453,2312 6453,2280 6449,2275 6431,2284 6418,2291 6265,2295 6092,2292 5919,2291 5753,2293 5725,2300 5673,2309 5672,2310 5655,2388 5638,2468 5642,2959 5662,3089 5673,3170 5715,3186 5914,3179 5998,3178 6303,3177 6593,3179 L 7121,3182 7157,3228 C 7202,3288 7214,3381 7181,3418 7125,3481 7078,3484 6277,3481 5865,3480 5494,3477 5453,3474 Z M 7453,2645 C 7653,2594 7804,2486 7869,2351 7937,2211 7873,1974 7742,1877 7667,1823 7563,1777 7441,1746 7276,1703 7071,1775 6931,1926 6834,2028 6755,2174 6755,2249 6755,2367 6848,2523 6960,2592 7086,2670 7276,2690 7453,2645 Z M 9222,2449 C 9405,2386 9566,2274 9607,2184 9644,2100 9652,1944 9624,1859 9562,1675 9333,1537 9091,1539 8921,1539 8830,1582 8674,1738 8569,1843 8522,1939 8516,2061 8510,2172 8528,2220 8615,2317 8726,2440 8855,2490 9039,2481 9100,2477 9183,2463 9222,2449 Z"/>
       </g>
      </g>
      <g class="com.sun.star.drawing.PolyPolygonShape">
       <g id="id13">
        <path fill="rgb(0,0,0)" stroke="none" d="M 20659,1611 L 20710,1767 20761,1610 20818,1611 20818,1829 20782,1829 20781,1652 20726,1829 20693,1829 20639,1653 20639,1829 20602,1829 20602,1611 20659,1611 Z M 20398,1648 L 20398,1610 20569,1611 20569,1649 20503,1649 20503,1829 20464,1830 20464,1648 20398,1648 Z"/>
       </g>
      </g>
     </g>
    </g>
   </g>
  </g>
 </g>
</svg>